<svg version="1.1" id="Warstwa_1" xmlns="http://www.w3.org/2000/svg" xmlns:xlink="http://www.w3.org/1999/xlink" x="0" y="0" viewBox="0 0 259.2 108.3" xml:space="preserve"><style>.st1{clip-path:url(#SVGID_4_);fill:#fff}</style><defs><path id="SVGID_1_" d="M169 20.2c-3.8 0-5.2 1.2-6.1 4.8l-10.4 43.4c-1.3 5.3-3.1 6.3-6.3 6.3-3.8 0-5.4-.9-6.9-6.3L127.5 25c-1-3.6-2.4-4.7-6.2-4.7h-1c-1.5 0-3 .1-3.8 1.2-.8 1-.5 2.5-.1 4l11.9 43.7c2.2 8.4 4.9 15.3 14.9 15.3 1.9 0 3.6-.3 5-.7-3 9.5-6.1 13.7-15.1 14.6-1.8.2-3 .4-3.7 1.3-.7.9-.5 2.2-.3 3.4l.2 1.1c.5 2.6 1.5 4.2 4.4 4.2h1c13.5-.9 20.8-8.2 25-25.1l14.5-57.8c.3-1.5.5-3-.2-4-.8-1-2.3-1.1-3.8-1.1H169zM71.7 64.8c0-7.3 4.4-10.1 15.5-10.1h13.9v8.8c0 7.1-2.6 11.3-16.2 11.3-8.8-.2-13.2-3.4-13.2-10m-.4-45.2c-3.1.7-4.4 1.5-4.4 5.1v1c0 1.4.2 2.3.6 3 .5.8 1.3 1.2 2.4 1.2.5 0 1.2-.1 1.9-.3 1.8-.4 7.4-1.4 13.6-1.4 11.1 0 15.7 3.1 15.7 10.6v6.7h-14c-18 0-26.4 6.1-26.4 19.2 0 12.7 8.7 19.7 24.4 19.7 18.7 0 27.1-6.4 27.1-20.7V38.9c0-13.8-8.9-20.5-27.2-20.5-7.3-.1-12 .8-13.7 1.2M246.1 0c-7.8 0-10.7 1.3-10.7 8.4v43.9c0 2.8-.5 5.1-1.7 6.8-2.1 3.3-6.3 4.8-13 4.8s-10.9-1.5-13-4.8c-1.1-1.8-1.7-4-1.7-6.8V8.4c0-7.1-2.9-8.4-10.7-8.4h-2.4c-7.8 0-10.7 1.3-10.7 8.4v43.9c0 7.1 1.6 13 4.7 17.8 5.9 9.3 17.4 14.3 33.8 14.3h.2c16.3 0 27.9-5 33.8-14.3 3.1-4.8 4.7-10.8 4.7-17.8V8.4c0-7.1-2.9-8.4-10.7-8.4h-2.6zM11.4 15.9c0-3.7 1.4-5.1 5.1-5.1H33c10.6 0 16.7 2.6 16.7 15.9 0 10.4-2.7 16-16.7 16H11.4V15.9zm3-15.9C4.4 0 0 4.4 0 14.4v63.9c0 3.8 1.2 5.1 5.1 5.1h1.3c3.8 0 5.1-1.2 5.1-5.1V53.4H33c19.2 0 28.1-8.5 28.1-26.7S52.1 0 33 0H14.4z"/></defs><use xlink:href="#SVGID_1_" overflow="visible" fill="#fff"/><clipPath id="SVGID_2_"><use xlink:href="#SVGID_1_" overflow="visible"/></clipPath><g clip-path="url(#SVGID_2_)"><defs><path id="SVGID_3_" d="M0 0h259.2v108.3H0z"/></defs><use xlink:href="#SVGID_3_" overflow="visible" fill="#fff"/><clipPath id="SVGID_4_"><use xlink:href="#SVGID_3_" overflow="visible"/></clipPath><path class="st1" d="M0 0h259.2v22.9H0zm0 22.9h259.2v1.2H0zm0 1.2h259.2v1.2H0zm0 1.2h259.2v1.2H0zm0 1.3h259.2v1.2H0zm0 1.2h259.2V29H0zM0 29h259.2v1.2H0zm0 1.3h259.2v1.2H0zm0 1.2h259.2v1.2H0zm0 1.3h259.2V34H0zM0 34h259.2v1.2H0zm0 1.2h259.2v1.2H0zm0 1.3h259.2v1.2H0zm0 1.2h259.2v1.2H0z"/><path class="st1" d="M0 38.9h259.2v1.2H0zm0 1.3h259.2v1.2H0zm0 1.2h259.2v1.2H0zm0 1.3h259.2v1.2H0zm0 1.2h259.2v1.2H0zm0 1.2h259.2v1.2H0zm0 1.3h259.2v1.2H0zm0 1.2h259.2v1.2H0z"/><path class="st1" d="M0 48.8h259.2V50H0zm0 1.3h259.2v1.2H0zm0 1.2h259.2v1.2H0zm0 1.3h259.2v1.2H0zm0 1.2h259.2V55H0zM0 55h259.2v1.2H0zm0 1.3h259.2v1.2H0zm0 1.2h259.2v1.2H0zm0 1.3h259.2V60H0zM0 60h259.2v1.2H0zm0 1.2h259.2v1.2H0zm0 1.3h259.2v1.2H0zm0 1.2h259.2v1.2H0zm0 1.2h259.2v1.2H0zm0 1.3h259.2v1.2H0zm0 1.2h259.2v1.2H0zm0 1.3h259.2v1.2H0zm0 1.2h259.2v1.2H0z"/><path class="st1" d="M0 71.1h259.2v1.2H0zm0 1.3h259.2v1.2H0zm0 1.2h259.2v1.2H0zm0 1.2h259.2V76H0zm0 1.3h259.2v1.2H0zm0 1.2h259.2v1.2H0zm0 1.3h259.2v1.2H0zm0 1.2h259.2V81H0zM0 81h259.2v1.2H0zm0 1.3h259.2v1.2H0zm0 1.2h259.2v1.2H0zm0 1.2h259.2v1.2H0zM0 86h259.2v1.2H0zm0 1.2h259.2v1.2H0zm0 1.3h259.2v1.2H0zm0 1.2h259.2v1.2H0zm0 1.2h259.2v1.2H0zm0 1.3h259.2v1.2H0zm0 1.2h259.2v1.2H0zm0 1.3h259.2v1.2H0zm0 1.2h259.2v1.2H0z"/><path class="st1" d="M0 97.1h259.2v1.2H0zm0 1.3h259.2v1.2H0zm0 1.2h259.2v1.2H0zm0 1.2h259.2v1.2H0zm0 1.3h259.2v1.2H0zm0 1.2h259.2v1.2H0zm0 1.3h259.2v1.2H0zm0 1.2h259.2v1.2H0zm0 1.2h259.2v1.2H0z"/></g></svg>