<svg xmlns="http://www.w3.org/2000/svg" viewBox="0 0 116.4 60"><path fill="#6ab023" d="M0 0h116.4v60H0z"/><path d="M41.6 30.2c-.8-.2-1.7-.2-2.7-.2-2.4 0-4.3.7-5.6 1-.4.1-.7.4-.7.7v.1c.2.4 1.1 2.7 1.1 2.8.1.2.3.3.6.3h.2c1.1-.1 2-.6 4.3-.6.9 0 1.6.1 2.1.5.4.3.6.8.6 1.7v1.1s-1.1-.2-1.9-.2c-.9 0-1.8 0-3.4.3-3.5.6-5 2.3-5 5.1v.5c0 .5 0 .9.1 1.3.6 3.2 3.2 4.2 6 4.2h1.2c.3 0 2.1 0 2.9-.1.6 0 1.2-.1 1.8-.2 1.1-.1 2.2-.3 3.1-.5.9-.2 1.1-.4 1.1-.9V36.5c-.1-3.8-2.2-5.7-5.8-6.3zm-.2 14.7l-.4.1c-.3.1-.7.1-1.1.2-.2 0-.4.1-.6.1h-1.4c-1 0-1.9-.4-2.1-1.7v-.8c0-1.1.5-1.8 1.7-2 .4-.1.7-.1 1.2-.1h.7c.7 0 2 .3 2 .3v3.9zm-22.1 3.9c-2.8 0-5.6-.4-7.7-.8-1-.2-1.1-.4-1.1-.9V23c0-.4.4-.6.8-.6h.1c.7.2 4.4 1.5 4.5 1.5.2.1.4.3.4.6v5.6c1-.1 2.2-.2 2.9-.2 6.1 0 9.3 3.5 9.3 8.5v1.9c.1 5.1-3.4 8.5-9.2 8.5zm3.5-10.4c0-2.2-1-4.2-3.5-4.2-.9 0-2.1.1-2.9.2v9.9c.7.1 1.8.2 2.9.2 2.6 0 3.5-2 3.5-4.2v-1.9zm73.8 10.4c-5.8 0-9.3-3.5-9.3-8.6v-1.6c0-5.1 3.5-8.6 9.3-8.6 5.8 0 9.3 3.5 9.3 8.6v1.6c0 5-3.5 8.6-9.3 8.6zm3.5-10.3c0-2.6-1.4-4.2-3.5-4.2s-3.5 1.6-3.5 4.2v1.6c0 2.6 1.5 4.2 3.5 4.2 2.1 0 3.5-1.6 3.5-4.2v-1.6zm-15.6 5.8c0-.1-.1-.1-.1-.1-.1-.2-.3-.3-.6-.3h-.1c-1 .1-1.4.6-3.5.6-1.6 0-3.3-1.2-3.3-4v-2c0-2.8 1.6-4 3.3-4 2 0 2.5.5 3.5.6h.1c.2 0 .5-.1.6-.3 0 0 0-.1.1-.1.2-.4 1.1-2.9 1.1-2.9v-.1c0-.5-.2-.6-.8-.7-1-.3-2.8-.9-4.9-.9-5.1 0-8.7 3.2-8.7 8.4v2c0 5.2 3.6 8.4 8.7 8.4 2.2 0 4-.6 4.9-.9.5-.2.8-.2.8-.7v-.1c0-.1-.9-2.5-1.1-2.9zM59.5 30c-2.8 0-5.6.4-7.7.8-1 .2-1.1.4-1.1.9V51c0 .3.2.5.4.6.1 0 3.8 1.3 4.5 1.5h.1c.4 0 .8-.3.8-.6v-4c1 .1 2.2.2 2.9.2 6.1 0 9.3-3.5 9.3-8.5v-1.9c.1-5-3.4-8.3-9.2-8.3zM63 40.3c0 2.2-1 4.2-3.5 4.2-.9 0-2.1-.1-2.9-.2v-9.9c.7-.1 1.8-.2 2.9-.2 2.5 0 3.5 2 3.5 4.2v1.9z" fill="#fff"/></svg>