<svg version="1.1" id="Warstwa_1" xmlns="http://www.w3.org/2000/svg" xmlns:xlink="http://www.w3.org/1999/xlink" x="0" y="0" viewBox="0 0 219.4 155.9" xml:space="preserve"><style>.st1{clip-path:url(#SVGID_2_);fill:#fff}</style><path fill="#fff" d="M69.6 28.3h18.5v59.8H69.6z"/><defs><path id="SVGID_1_" d="M0 0h219.4v155.9H0z"/></defs><clipPath id="SVGID_2_"><use xlink:href="#SVGID_1_" overflow="visible"/></clipPath><path class="st1" d="M60.3 65.8c0 14.4-10.8 22.3-26 22.3H0V12h34.4c13.3 0 23.4 6.5 23.4 20 0 7.4-3.2 11.9-8.9 14.9 7.7 2.8 11.4 10.3 11.4 18.9M31.9 29.6H18.5V41h14.1c4.1 0 6.4-1.7 6.4-5.8 0-4.6-2.7-5.6-7.1-5.6m9.7 34.5c0-4.2-1.5-6.3-7.7-6.3H18.5v12.6h15.4c6.2.1 7.7-2.3 7.7-6.3m97.4 24l-21-24.6v24.6H99.5V12H118v40.1l19.6-23.8H161l-25.5 28.5 26.9 31.3zM90 10.5c0 6.2-4.7 10.7-11.2 10.7-6.3 0-11.2-4.5-11.2-10.7 0-6 4.9-10.5 11.2-10.5C85.3 0 90 4.5 90 10.5"/><path class="st1" d="M199.3 68.6c-1.5 4.2-5.5 6.6-10.5 6.6-6.4 0-12.3-3.9-13.2-13.2h43.6c1.8-19.7-11.1-35.2-30.9-35.2-18.6 0-31.5 13.6-31.5 31.3 0 17.7 12.8 31.3 32 31.3 11.6 0 22.8-5 28-16.6l-17.5-4.2zm-11.1-27.5c6.6 0 10.5 4 11.7 9.8h-23.8c1.6-5.8 5.5-9.8 12.1-9.8m-94 76V144H75.7v-22.7c0-6.5-2-10.3-8.9-10.3-6.7 0-10.4 3.6-10.4 11.8V144H37.8v-22.7c0-6.5-2-10.3-8.9-10.3-6.7 0-10.4 3.6-10.4 11.8V144H0V94.7h18.5v6.7c4.3-5.3 9.9-8.2 17-8.2 8.2 0 14.5 3.8 17.9 10.4C58 97 64.9 93.2 73.2 93.2c12.8.1 21 9.3 21 23.9m48.5 17.9c-1.5 4.2-5.5 6.6-10.5 6.6-6.4 0-12.3-3.9-13.2-13.2h43.6c1.8-19.7-11.1-35.2-30.9-35.2-18.6 0-31.5 13.6-31.5 31.3 0 17.7 12.8 31.3 32 31.3 11.6 0 22.8-5 28-16.6l-17.5-4.2zm-11.1-27.5c6.6 0 10.5 4 11.7 9.8h-23.8c1.6-5.8 5.5-9.8 12.1-9.8"/></svg>