<?xml version="1.0" encoding="utf-8"?>
<!-- Generator: Adobe Illustrator 23.0.6, SVG Export Plug-In . SVG Version: 6.00 Build 0)  -->
<svg version="1.1" id="Layer_1" xmlns="http://www.w3.org/2000/svg" xmlns:xlink="http://www.w3.org/1999/xlink" x="0px" y="0px"
	 viewBox="0 0 116.4 60" style="enable-background:new 0 0 116.4 60;" xml:space="preserve">
<style type="text/css">
	.st0{fill:#6AB023;}
	.st1{fill:#FFFFFF;}
</style>
<g>
	<rect class="st0" width="116.4" height="60"/>
	<path class="st1" d="M41.6,30.2C40.8,30,39.9,30,38.9,30c-2.4,0-4.3,0.7-5.6,1c-0.4,0.1-0.7,0.4-0.7,0.7c0,0,0,0,0,0.1
		c0.2,0.4,1.1,2.7,1.1,2.8c0.1,0.2,0.3,0.3,0.6,0.3h0.2c1.1-0.1,2-0.6,4.3-0.6c0.9,0,1.6,0.1,2.1,0.5c0.4,0.3,0.6,0.8,0.6,1.7v1.1
		c0,0-1.1-0.2-1.9-0.2c-0.9,0-1.8,0-3.4,0.3c-3.5,0.6-5,2.3-5,5.1v0.5c0,0.5,0,0.9,0.1,1.3c0.6,3.2,3.2,4.2,6,4.2c0.2,0,0.7,0,1.2,0
		c0.3,0,2.1,0,2.9-0.1c0.6,0,1.2-0.1,1.8-0.2c1.1-0.1,2.2-0.3,3.1-0.5c0.9-0.2,1.1-0.4,1.1-0.9V36.5C47.3,32.7,45.2,30.8,41.6,30.2z
		 M41.4,44.9c0,0,0,0-0.4,0.1c-0.3,0.1-0.7,0.1-1.1,0.2c-0.2,0-0.4,0.1-0.6,0.1c-0.3,0-0.9,0-1,0c-0.2,0-0.4,0-0.4,0
		c-1,0-1.9-0.4-2.1-1.7c0-0.2,0-0.3,0-0.5v-0.3c0-1.1,0.5-1.8,1.7-2c0.4-0.1,0.7-0.1,1.2-0.1c0.2,0,0.5,0,0.7,0c0.7,0,2,0.3,2,0.3
		v3.7V44.9z"/>
	<path class="st1" d="M19.3,48.8c-2.8,0-5.6-0.4-7.7-0.8c-1-0.2-1.1-0.4-1.1-0.9V23c0-0.4,0.4-0.6,0.8-0.6c0,0,0.1,0,0.1,0
		c0.7,0.2,4.4,1.5,4.5,1.5c0.2,0.1,0.4,0.3,0.4,0.6v5.6c1-0.1,2.2-0.2,2.9-0.2c6.1,0,9.3,3.5,9.3,8.5v1.9
		C28.6,45.4,25.1,48.8,19.3,48.8z M22.8,38.4c0-2.2-1-4.2-3.5-4.2c-0.9,0-2.1,0.1-2.9,0.2v9.9c0.7,0.1,1.8,0.2,2.9,0.2
		c2.6,0,3.5-2,3.5-4.2V38.4z"/>
	<path class="st1" d="M96.6,48.8c-5.8,0-9.3-3.5-9.3-8.6v-1.6c0-5.1,3.5-8.6,9.3-8.6c5.8,0,9.3,3.5,9.3,8.6v1.6
		C105.9,45.2,102.4,48.8,96.6,48.8z M100.1,38.5c0-2.6-1.4-4.2-3.5-4.2c-2.1,0-3.5,1.6-3.5,4.2v1.6c0,2.6,1.5,4.2,3.5,4.2
		c2.1,0,3.5-1.6,3.5-4.2V38.5z"/>
	<path class="st1" d="M84.5,44.3c0-0.1-0.1-0.1-0.1-0.1c-0.1-0.2-0.3-0.3-0.6-0.3c0,0,0,0-0.1,0c-1,0.1-1.4,0.6-3.5,0.6
		c-1.6,0-3.3-1.2-3.3-4v-1v-1c0-2.8,1.6-4,3.3-4c2,0,2.5,0.5,3.5,0.6c0,0,0.1,0,0.1,0c0.2,0,0.5-0.1,0.6-0.3c0,0,0-0.1,0.1-0.1
		c0.2-0.4,1.1-2.9,1.1-2.9c0,0,0-0.1,0-0.1c0-0.5-0.2-0.6-0.8-0.7c-1-0.3-2.8-0.9-4.9-0.9c-5.1,0-8.7,3.2-8.7,8.4v1v1
		c0,5.2,3.6,8.4,8.7,8.4c2.2,0,4-0.6,4.9-0.9c0.5-0.2,0.8-0.2,0.8-0.7c0,0,0-0.1,0-0.1C85.6,47.1,84.7,44.7,84.5,44.3z"/>
	<path class="st1" d="M59.5,30c-2.8,0-5.6,0.4-7.7,0.8c-1,0.2-1.1,0.4-1.1,0.9v18.2V51c0,0.3,0.2,0.5,0.4,0.6c0.1,0,3.8,1.3,4.5,1.5
		c0.1,0,0.1,0,0.1,0c0.4,0,0.8-0.3,0.8-0.6v-2.6v-1.4c1,0.1,2.2,0.2,2.9,0.2c6.1,0,9.3-3.5,9.3-8.5v-1.9C68.8,33.3,65.3,30,59.5,30z
		 M63,40.3c0,2.2-1,4.2-3.5,4.2c-0.9,0-2.1-0.1-2.9-0.2v-9.9c0.7-0.1,1.8-0.2,2.9-0.2c2.5,0,3.5,2,3.5,4.2V40.3z"/>
</g>
</svg>
