<?xml version="1.0" encoding="utf-8"?>
<!-- Generator: Adobe Illustrator 23.0.6, SVG Export Plug-In . SVG Version: 6.00 Build 0)  -->
<svg version="1.1" id="Warstwa_1" xmlns="http://www.w3.org/2000/svg" xmlns:xlink="http://www.w3.org/1999/xlink" x="0px" y="0px"
	 viewBox="0 0 219.4 155.9" style="enable-background:new 0 0 219.4 155.9;" xml:space="preserve">
<style type="text/css">
	.st0{fill:#FFFFFF;}
	.st1{clip-path:url(#SVGID_2_);fill:#FFFFFF;}
</style>
<rect x="69.6" y="28.3" class="st0" width="18.5" height="59.8"/>
<g>
	<defs>
		<rect id="SVGID_1_" width="219.4" height="155.9"/>
	</defs>
	<clipPath id="SVGID_2_">
		<use xlink:href="#SVGID_1_"  style="overflow:visible;"/>
	</clipPath>
	<path class="st1" d="M60.3,65.8c0,14.4-10.8,22.3-26,22.3H0V12h34.4c13.3,0,23.4,6.5,23.4,20c0,7.4-3.2,11.9-8.9,14.9
		C56.6,49.7,60.3,57.2,60.3,65.8 M31.9,29.6H18.5V41h14.1c4.1,0,6.4-1.7,6.4-5.8C39,30.6,36.3,29.6,31.9,29.6 M41.6,64.1
		c0-4.2-1.5-6.3-7.7-6.3H18.5v12.6h15.4C40.1,70.5,41.6,68.1,41.6,64.1"/>
	<polygon class="st1" points="139,88.1 118,63.5 118,88.1 99.5,88.1 99.5,12 118,12 118,52.1 137.6,28.3 161,28.3 135.5,56.8 
		162.4,88.1 	"/>
	<path class="st1" d="M90,10.5c0,6.2-4.7,10.7-11.2,10.7c-6.3,0-11.2-4.5-11.2-10.7C67.6,4.5,72.5,0,78.8,0C85.3,0,90,4.5,90,10.5"
		/>
	<path class="st1" d="M199.3,68.6c-1.5,4.2-5.5,6.6-10.5,6.6c-6.4,0-12.3-3.9-13.2-13.2h43.6c1.8-19.7-11.1-35.2-30.9-35.2
		c-18.6,0-31.5,13.6-31.5,31.3c0,17.7,12.8,31.3,32,31.3c11.6,0,22.8-5,28-16.6L199.3,68.6z M188.2,41.1c6.6,0,10.5,4,11.7,9.8
		h-23.8C177.7,45.1,181.6,41.1,188.2,41.1"/>
	<path class="st1" d="M94.2,117.1v26.9H75.7v-22.7c0-6.5-2-10.3-8.9-10.3c-6.7,0-10.4,3.6-10.4,11.8v21.2H37.8v-22.7
		c0-6.5-2-10.3-8.9-10.3c-6.7,0-10.4,3.6-10.4,11.8v21.2H0V94.7h18.5v6.7c4.3-5.3,9.9-8.2,17-8.2c8.2,0,14.5,3.8,17.9,10.4
		c4.6-6.6,11.5-10.4,19.8-10.4C86,93.3,94.2,102.5,94.2,117.1"/>
	<path class="st1" d="M142.7,135c-1.5,4.2-5.5,6.6-10.5,6.6c-6.4,0-12.3-3.9-13.2-13.2h43.6c1.8-19.7-11.1-35.2-30.9-35.2
		c-18.6,0-31.5,13.6-31.5,31.3c0,17.7,12.8,31.3,32,31.3c11.6,0,22.8-5,28-16.6L142.7,135z M131.6,107.5c6.6,0,10.5,4,11.7,9.8
		h-23.8C121.1,111.5,125,107.5,131.6,107.5"/>
</g>
</svg>
