<?xml version="1.0" encoding="utf-8"?>
<!-- Generator: Adobe Illustrator 23.0.6, SVG Export Plug-In . SVG Version: 6.00 Build 0)  -->
<svg version="1.1" id="Warstwa_1" xmlns="http://www.w3.org/2000/svg" xmlns:xlink="http://www.w3.org/1999/xlink" x="0px" y="0px"
	 viewBox="0 0 259.2 108.3" style="enable-background:new 0 0 259.2 108.3;" xml:space="preserve">
<style type="text/css">
	.st0{clip-path:url(#SVGID_2_);}
	.st1{clip-path:url(#SVGID_4_);fill:#FFFFFF;}
</style>
<g>
	<defs>
		<path id="SVGID_1_" d="M169,20.2c-3.8,0-5.2,1.2-6.1,4.8l-10.4,43.4c-1.3,5.3-3.1,6.3-6.3,6.3c-3.8,0-5.4-0.9-6.9-6.3l-11.8-43.4
			c-1-3.6-2.4-4.7-6.2-4.7h-1c-1.5,0-3,0.1-3.8,1.2c-0.8,1-0.5,2.5-0.1,4l11.9,43.7c2.2,8.4,4.9,15.3,14.9,15.3c1.9,0,3.6-0.3,5-0.7
			c-3,9.5-6.1,13.7-15.1,14.6c-1.8,0.2-3,0.4-3.7,1.3c-0.7,0.9-0.5,2.2-0.3,3.4l0.2,1.1c0.5,2.6,1.5,4.2,4.4,4.2c0.3,0,0.6,0,1,0
			c13.5-0.9,20.8-8.2,25-25.1l14.5-57.8c0.3-1.5,0.5-3-0.2-4c-0.8-1-2.3-1.1-3.8-1.1H169z M71.7,64.8c0-7.3,4.4-10.1,15.5-10.1h13.9
			v8.8c0,7.1-2.6,11.3-16.2,11.3C76.1,74.6,71.7,71.4,71.7,64.8 M71.3,19.6c-3.1,0.7-4.4,1.5-4.4,5.1v1c0,1.4,0.2,2.3,0.6,3
			c0.5,0.8,1.3,1.2,2.4,1.2c0.5,0,1.2-0.1,1.9-0.3c1.8-0.4,7.4-1.4,13.6-1.4c11.1,0,15.7,3.1,15.7,10.6v6.7h-14
			c-18,0-26.4,6.1-26.4,19.2c0,12.7,8.7,19.7,24.4,19.7c18.7,0,27.1-6.4,27.1-20.7V38.9c0-13.8-8.9-20.5-27.2-20.5
			C77.7,18.3,73,19.2,71.3,19.6 M246.1,0c-7.8,0-10.7,1.3-10.7,8.4V25c0,0,0,0.1,0,0.1v3.6c0,0.1,0,0.2,0,0.4v23.2
			c0,2.8-0.5,5.1-1.7,6.8c-2.1,3.3-6.3,4.8-13,4.8c-6.7,0-10.9-1.5-13-4.8c-1.1-1.8-1.7-4-1.7-6.8V29.1c0-0.1,0-0.2,0-0.4v-3.6
			c0,0,0-0.1,0-0.1V8.4c0-7.1-2.9-8.4-10.7-8.4h-2.4c-7.8,0-10.7,1.3-10.7,8.4v16.7v17.6v9.6c0,7.1,1.6,13,4.7,17.8
			c5.9,9.3,17.4,14.3,33.8,14.3c0,0,0,0,0.1,0c0,0,0,0,0.1,0c16.3,0,27.9-5,33.8-14.3c3.1-4.8,4.7-10.8,4.7-17.8v-9.6V25.1V8.4
			c0-7.1-2.9-8.4-10.7-8.4H246.1z M11.4,15.9c0-3.7,1.4-5.1,5.1-5.1H33c10.6,0,16.7,2.6,16.7,15.9c0,10.4-2.7,16-16.7,16H11.4V15.9z
			 M14.4,0C4.4,0,0,4.4,0,14.4v63.9c0,3.8,1.2,5.1,5.1,5.1h1.3c3.8,0,5.1-1.2,5.1-5.1V53.4H33c19.2,0,28.1-8.5,28.1-26.7
			C61.1,8.5,52.1,0,33,0H14.4z"/>
	</defs>
	<use xlink:href="#SVGID_1_"  style="overflow:visible;fill:#FFFFFF;"/>
	<clipPath id="SVGID_2_">
		<use xlink:href="#SVGID_1_"  style="overflow:visible;"/>
	</clipPath>
	<g class="st0">
		<g>
			<defs>
				<rect id="SVGID_3_" width="259.2" height="108.3"/>
			</defs>
			<use xlink:href="#SVGID_3_"  style="overflow:visible;fill:#FFFFFF;"/>
			<clipPath id="SVGID_4_">
				<use xlink:href="#SVGID_3_"  style="overflow:visible;"/>
			</clipPath>
			<rect class="st1" width="259.2" height="22.9"/>
			<rect y="22.9" class="st1" width="259.2" height="1.2"/>
			<rect y="24.1" class="st1" width="259.2" height="1.2"/>
			<rect y="25.3" class="st1" width="259.2" height="1.2"/>
			<rect y="26.6" class="st1" width="259.2" height="1.2"/>
			<rect y="27.8" class="st1" width="259.2" height="1.2"/>
			<rect y="29" class="st1" width="259.2" height="1.2"/>
			<rect y="30.3" class="st1" width="259.2" height="1.2"/>
			<rect y="31.5" class="st1" width="259.2" height="1.2"/>
			<rect y="32.8" class="st1" width="259.2" height="1.2"/>
			<rect y="34" class="st1" width="259.2" height="1.2"/>
			<rect y="35.2" class="st1" width="259.2" height="1.2"/>
			<rect y="36.5" class="st1" width="259.2" height="1.2"/>
			<rect y="37.7" class="st1" width="259.2" height="1.2"/>
			<rect y="38.9" class="st1" width="259.2" height="1.2"/>
			<rect y="40.2" class="st1" width="259.2" height="1.2"/>
			<rect y="41.4" class="st1" width="259.2" height="1.2"/>
			<rect y="42.7" class="st1" width="259.2" height="1.2"/>
			<rect y="43.9" class="st1" width="259.2" height="1.2"/>
			<rect y="45.1" class="st1" width="259.2" height="1.2"/>
			<rect y="46.4" class="st1" width="259.2" height="1.2"/>
			<rect y="47.6" class="st1" width="259.2" height="1.2"/>
			<rect y="48.8" class="st1" width="259.2" height="1.2"/>
			<rect y="50.1" class="st1" width="259.2" height="1.2"/>
			<rect y="51.3" class="st1" width="259.2" height="1.2"/>
			<rect y="52.6" class="st1" width="259.2" height="1.2"/>
			<rect y="53.8" class="st1" width="259.2" height="1.2"/>
			<rect y="55" class="st1" width="259.2" height="1.2"/>
			<rect y="56.3" class="st1" width="259.2" height="1.2"/>
			<rect y="57.5" class="st1" width="259.2" height="1.2"/>
			<rect y="58.8" class="st1" width="259.2" height="1.2"/>
			<rect y="60" class="st1" width="259.2" height="1.2"/>
			<rect y="61.2" class="st1" width="259.2" height="1.2"/>
			<rect y="62.5" class="st1" width="259.2" height="1.2"/>
			<rect y="63.7" class="st1" width="259.2" height="1.2"/>
			<rect y="64.9" class="st1" width="259.2" height="1.2"/>
			<rect y="66.2" class="st1" width="259.2" height="1.2"/>
			<rect y="67.4" class="st1" width="259.2" height="1.2"/>
			<rect y="68.7" class="st1" width="259.2" height="1.2"/>
			<rect y="69.9" class="st1" width="259.2" height="1.2"/>
			<rect y="71.1" class="st1" width="259.2" height="1.2"/>
			<rect y="72.4" class="st1" width="259.2" height="1.2"/>
			<rect y="73.6" class="st1" width="259.2" height="1.2"/>
			<rect y="74.8" class="st1" width="259.2" height="1.2"/>
			<rect y="76.1" class="st1" width="259.2" height="1.2"/>
			<rect y="77.3" class="st1" width="259.2" height="1.2"/>
			<rect y="78.6" class="st1" width="259.2" height="1.2"/>
			<rect y="79.8" class="st1" width="259.2" height="1.2"/>
			<rect y="81" class="st1" width="259.2" height="1.2"/>
			<rect y="82.3" class="st1" width="259.2" height="1.2"/>
			<rect y="83.5" class="st1" width="259.2" height="1.2"/>
			<rect y="84.7" class="st1" width="259.2" height="1.2"/>
			<rect y="86" class="st1" width="259.2" height="1.2"/>
			<rect y="87.2" class="st1" width="259.2" height="1.2"/>
			<rect y="88.5" class="st1" width="259.2" height="1.2"/>
			<rect y="89.7" class="st1" width="259.2" height="1.2"/>
			<rect y="90.9" class="st1" width="259.2" height="1.2"/>
			<rect y="92.2" class="st1" width="259.2" height="1.2"/>
			<rect y="93.4" class="st1" width="259.2" height="1.2"/>
			<rect y="94.7" class="st1" width="259.2" height="1.2"/>
			<rect y="95.9" class="st1" width="259.2" height="1.2"/>
			<rect y="97.1" class="st1" width="259.2" height="1.2"/>
			<rect y="98.4" class="st1" width="259.2" height="1.2"/>
			<rect y="99.6" class="st1" width="259.2" height="1.2"/>
			<rect y="100.8" class="st1" width="259.2" height="1.2"/>
			<rect y="102.1" class="st1" width="259.2" height="1.2"/>
			<rect y="103.3" class="st1" width="259.2" height="1.2"/>
			<rect y="104.6" class="st1" width="259.2" height="1.2"/>
			<rect y="105.8" class="st1" width="259.2" height="1.2"/>
			<rect y="107" class="st1" width="259.2" height="1.2"/>
			<rect y="108.3" class="st1" width="259.2" height="0"/>
		</g>
	</g>
</g>
</svg>
