<?xml version="1.0" encoding="utf-8"?>
<!-- Generator: Adobe Illustrator 23.0.6, SVG Export Plug-In . SVG Version: 6.00 Build 0)  -->
<svg version="1.1" id="Warstwa_1" xmlns="http://www.w3.org/2000/svg" xmlns:xlink="http://www.w3.org/1999/xlink" x="0px" y="0px"
	 viewBox="0 0 48.5 62" style="enable-background:new 0 0 48.5 62;" xml:space="preserve">
<g>
	<path d="M20.5,9H24v6.2c0,0.1,0.1,0.3,0.1,0.4l8,8.1c0.1,0.1,0.2,0.1,0.4,0.1c0.1,0,0.1,0,0.2,0c0.2-0.1,0.3-0.3,0.3-0.5V9h3.5
		c0.2,0,0.4-0.1,0.5-0.3s0-0.4-0.1-0.5l-8-8c-0.2-0.2-0.5-0.2-0.7,0l-8,8c-0.1,0.1-0.2,0.4-0.1,0.5C20.2,8.9,20.3,9,20.5,9z
		 M28.5,1.2L35.3,8h-2.8C32.2,8,32,8.2,32,8.5V22l-7-7.1V8.5C25,8.2,24.8,8,24.5,8h-2.7L28.5,1.2z"/>
	<path d="M37.5,54c0.3,0,0.5-0.2,0.5-0.5v-10c0-0.3-0.2-0.5-0.5-0.5S37,43.2,37,43.5v5v5C37,53.8,37.2,54,37.5,54z"/>
	<path d="M37.5,55c-0.3,0-0.5,0.2-0.5,0.5v2c0,0.3,0.2,0.5,0.5,0.5s0.5-0.2,0.5-0.5v-2C38,55.2,37.8,55,37.5,55z"/>
	<path d="M37.5,59c-0.3,0-0.5,0.2-0.5,0.5v2c0,0.3,0.2,0.5,0.5,0.5s0.5-0.2,0.5-0.5v-2C38,59.2,37.8,59,37.5,59z"/>
	<path d="M17.1,42.7c0,0.1-0.1,0.2-0.1,0.2v4.5c0,0.3,0.2,0.5,0.5,0.5s0.5-0.2,0.5-0.5V43h-0.5C17.3,43,17.2,42.9,17.1,42.7z"/>
	<path d="M17.5,49c-0.3,0-0.5,0.2-0.5,0.5v2c0,0.3,0.2,0.5,0.5,0.5s0.5-0.2,0.5-0.5v-2C18,49.2,17.8,49,17.5,49z"/>
	<path d="M17.5,53c-0.3,0-0.5,0.2-0.5,0.5v2c0,0.3,0.2,0.5,0.5,0.5s0.5-0.2,0.5-0.5v-2C18,53.2,17.8,53,17.5,53z"/>
	<path d="M43.5,17c0.3,0,0.5-0.2,0.5-0.5v-10C44,6.2,43.8,6,43.5,6S43,6.2,43,6.5v10C43,16.8,43.2,17,43.5,17z"/>
	<path d="M43.5,21c0.3,0,0.5-0.2,0.5-0.5v-2c0-0.3-0.2-0.5-0.5-0.5S43,18.2,43,18.5v2C43,20.8,43.2,21,43.5,21z"/>
	<path d="M43.5,25c0.3,0,0.5-0.2,0.5-0.5v-2c0-0.3-0.2-0.5-0.5-0.5S43,22.2,43,22.5v2C43,24.8,43.2,25,43.5,25z"/>
	<path d="M11.5,45c-0.3,0-0.5,0.2-0.5,0.5v10c0,0.3,0.2,0.5,0.5,0.5s0.5-0.2,0.5-0.5v-10C12,45.2,11.8,45,11.5,45z"/>
	<path d="M11.5,57c-0.3,0-0.5,0.2-0.5,0.5v2c0,0.3,0.2,0.5,0.5,0.5s0.5-0.2,0.5-0.5v-2C12,57.2,11.8,57,11.5,57z"/>
	<path d="M30.6,28.7c0.1-0.2,0-0.4-0.1-0.5L15.7,13.3c-0.2-0.2-0.5-0.2-0.7,0L0.1,28.1C0,28.3,0,28.5,0,28.7C0.1,28.9,0.3,29,0.5,29
		H8v13.5C8,42.8,8.2,43,8.5,43h6c0.3,0,0.5-0.2,0.5-0.5S14.8,42,14.5,42H9V28.5C9,28.2,8.8,28,8.5,28H1.7l13.6-13.6L28.9,28h-6.4
		c-0.3,0-0.5,0.2-0.5,0.5V42h-4.5c-0.3,0-0.5,0.2-0.5,0.5c0,0.1,0,0.2,0.1,0.2c0.1-0.1,0.2-0.2,0.4-0.2c0.3,0,0.5,0.2,0.5,0.5h4.5
		c0.3,0,0.5-0.2,0.5-0.5V29h7.1C30.3,29,30.5,28.9,30.6,28.7z"/>
	<path d="M48.3,36.1l-10-10c-0.2-0.2-0.5-0.2-0.7,0l-10,10c-0.1,0.1-0.2,0.4-0.1,0.5s0.3,0.3,0.5,0.3H33v11.5c0,0.3,0.2,0.5,0.5,0.5
		h3c0.3,0,0.5-0.2,0.5-0.5S36.8,48,36.5,48H34V36.5c0-0.3-0.2-0.5-0.5-0.5h-4.4l8.8-8.8l8.8,8.8h-4.3c-0.3,0-0.5,0.2-0.5,0.5V48
		h-2.5c-0.3,0-0.5,0.2-0.5,0.5s0.2,0.5,0.5,0.5h3c0.3,0,0.5-0.2,0.5-0.5V37h5c0.2,0,0.4-0.1,0.5-0.3S48.5,36.3,48.3,36.1z"/>
</g>
</svg>
