<?xml version="1.0" encoding="utf-8"?>
<!-- Generator: Adobe Illustrator 23.0.6, SVG Export Plug-In . SVG Version: 6.00 Build 0)  -->
<svg version="1.1" id="Warstwa_1" xmlns="http://www.w3.org/2000/svg" xmlns:xlink="http://www.w3.org/1999/xlink" x="0px" y="0px"
	 viewBox="0 0 14.6 14.5" style="enable-background:new 0 0 14.6 14.5;" xml:space="preserve">
<path d="M13.9,7.2l0.7-0.4L14.5,6l-0.7-0.2L13,5.7l-0.2-0.6l0.6-0.6l0.5-0.6l-0.4-0.7l-0.8,0.1l-0.8,0.2L11.5,3l0.3-0.8L12,1.5
	L11.4,1l-0.7,0.4L10,2L9.4,1.8L9.3,1L9.2,0.2L8.4,0L8,0.7L7.6,1.4H7L6.6,0.7L6.1,0L5.3,0.2L5.2,1L5.1,1.8L4.5,2L4,1.5L3.3,1.1
	L2.7,1.6l0.2,0.8l0.3,0.8L2.8,3.7L2,3.3L1.2,3.2L0.8,3.9l0.5,0.6l0.6,0.6L1.7,5.7L0.9,5.8L0.1,6L0,6.8l0.7,0.4l0.7,0.3l0.1,0.6
	L0.8,8.6L0.2,9.1l0.2,0.7l0.8,0.1H2l0.3,0.5L2,11.1l-0.4,0.7l0.5,0.6l0.8-0.3l0.7-0.3l0.5,0.4L4,12.9v0.8L4.7,14l0.6-0.6l0.5-0.6
	l0.6,0.1l0.2,0.8l0.3,0.8h0.8L8,13.8L8.2,13l0.6-0.1l0.5,0.6l0.6,0.6l0.7-0.3V13l-0.1-0.8l0.5-0.4l0.7,0.3l0.8,0.3l0.5-0.6l-0.4-0.7
	l-0.4-0.7l0.3-0.5h0.8l0.8-0.1l0.2-0.7l-0.6-0.5L13,8.1l0.1-0.6L13.9,7.2z M12.4,7.7L11.8,8l-0.3,0.1c-0.1,0.3-0.2,0.6-0.3,0.9
	l0.2,0.3l0.3,0.6l-0.5,0.6l-0.6-0.1l-0.4-0.1c-0.2,0.2-0.5,0.4-0.8,0.5v0.4l-0.1,0.6L8.5,12L8,11.8l-0.2-0.3c-0.2,0-0.4,0-0.7,0
	c-0.1,0-0.2,0-0.3,0l-0.2,0.3l-0.5,0.4L5.3,12l-0.1-0.6V11c-0.3-0.2-0.5-0.3-0.8-0.6L4,10.5l-0.6,0.1L3,9.9l0.3-0.6L3.5,9
	C3.4,8.7,3.3,8.4,3.2,8.1L2.9,8L2.4,7.7V6.9L3,6.6l0.3-0.1c0.1-0.3,0.2-0.7,0.3-1L3.4,5.2L3,4.6L3.5,4l0.6,0.1l0.3,0.1
	C4.7,4,4.9,3.8,5.2,3.6V3.3l0.1-0.6l0.8-0.2l0.5,0.4l0.2,0.2c0.2,0,0.5,0,0.7,0c0.1,0,0.2,0,0.3,0L8,2.9l0.5-0.4l0.8,0.2l0.1,0.6
	v0.3C9.7,3.8,10,4,10.2,4.2l0.3-0.1L11.1,4l0.5,0.6l-0.3,0.6l-0.2,0.3c0.1,0.3,0.2,0.6,0.3,1l0.3,0.1l0.5,0.3L12.4,7.7z M10,7
	L9.9,6.4L10.1,6l0.1-0.5L9.7,4.9H9.2L8.7,5L8.2,4.8L8,4.4L7.7,4H7L6.7,4.4L6.4,4.8L5.9,5.1L5.4,5H4.9L4.4,5.6l0.1,0.5l0.2,0.4
	L4.6,7.1L4.2,7.4L4,7.7l0.2,0.7l0.4,0.2L5,8.7l0.4,0.5v0.5l0.1,0.5l0.7,0.3l0.4-0.2L7,10h0.6L8,10.3l0.4,0.2l0.7-0.3l0.1-0.5V9.2
	l0.4-0.5L10,8.6l0.4-0.2l0.2-0.7l-0.3-0.4L10,7z M8.7,7.5C8.6,8.2,8,8.8,7.2,8.7C6.5,8.6,5.9,8,6,7.2C6.1,6.5,6.7,5.9,7.5,6
	C8.2,6.1,8.8,6.8,8.7,7.5"/>
</svg>
