<?xml version="1.0" encoding="utf-8"?>
<!-- Generator: Adobe Illustrator 23.0.6, SVG Export Plug-In . SVG Version: 6.00 Build 0)  -->
<svg version="1.1" id="Warstwa_1" xmlns="http://www.w3.org/2000/svg" xmlns:xlink="http://www.w3.org/1999/xlink" x="0px" y="0px"
	 viewBox="0 0 11 14.8" style="enable-background:new 0 0 11 14.8;" xml:space="preserve">
<polygon points="5.7,7.2 5.1,7.2 4.7,7.9 4.2,8.2 3.4,8.1 3,8.6 3.2,8.9 5,8.7 "/>
<path d="M9.3,3H2.7l0.5-1.6c0.4-1.3-1.5-2-2-0.7C0,4.2,0,4.1,0,4.4c0,0.8,0.6,1.4,1.4,1.4H7L5.4,9.3L1.7,9.7c-0.2,0-0.3,0.1-0.4,0.2
	s-0.1,0.2-0.1,0.4c0,2.5,2,4.5,4.5,4.5c0.2,0,0.3-0.1,0.4-0.2s0.2-0.3,0.2-0.4l0.1-1.5l0.4,0.2l0.6-0.3l0.1-0.8l0.3-0.4l0.8-0.3
	l0.1-0.6L8.1,9.9L8,9.4l0.2-0.9C10.5,6,10.8,5.6,11,5.2C11,4.2,10.4,3,9.3,3 M2.2,1.8c-0.3,0-0.5-0.2-0.5-0.5s0.2-0.5,0.5-0.5
	S2.7,1,2.7,1.3S2.5,1.8,2.2,1.8 M5,13.5c-1.4-0.2-2.4-1.3-2.7-2.7l2.8-0.3v0.7l-1.5,0.2l0.3,0.4L4,12.6l0.6,0.3l0,0l0.3-0.2l0,0
	L5,13.5z M6.7,10.2L6.7,10.2v0.1c-0.1,0.3-0.2,0.5-0.4,0.6V10c0.1-0.1,0.2-0.2,0.3-0.3C6.7,9.9,6.7,10.1,6.7,10.2 M9,5.5
	c-0.5,0-0.9-0.4-0.9-0.9S8.5,3.7,9,3.7s0.9,0.4,0.9,0.9S9.5,5.5,9,5.5"/>
</svg>
