<?xml version="1.0" encoding="utf-8"?>
<!-- Generator: Adobe Illustrator 23.0.6, SVG Export Plug-In . SVG Version: 6.00 Build 0)  -->
<svg version="1.1" id="Warstwa_1" xmlns="http://www.w3.org/2000/svg" xmlns:xlink="http://www.w3.org/1999/xlink" x="0px" y="0px"
	 viewBox="0 0 11 13.3" style="enable-background:new 0 0 11 13.3;" xml:space="preserve">
<path d="M4.1,2.3c-0.5,0.3-1,1.9-1,1.9v2.3h-1L1.2,0H0v7.5c0,0.6,0.4,1,1,1h2v2.3c0,0,0.6,1.6,1,1.9c1.3,0.8,4.7,0.8,6,0
	c0.5-0.3,1-1.9,1-1.9V4.1c0,0-0.6-1.6-1-1.9C8.8,1.5,5.4,1.5,4.1,2.3 M8.6,11.2c-0.7,0.4-2.5,0.4-3.2,0C5,10.9,4.7,8.5,4.7,8.5h4.5
	C9.3,8.6,9,11,8.6,11.2 M4.8,6.4c0,0,0.3-2.4,0.7-2.7c0.7-0.4,2.5-0.5,3.2,0C9.1,4,9.4,6.4,9.4,6.4H4.8z"/>
</svg>
