<?xml version="1.0" encoding="utf-8"?>
<!-- Generator: Adobe Illustrator 23.0.6, SVG Export Plug-In . SVG Version: 6.00 Build 0)  -->
<svg version="1.1" id="Warstwa_1" xmlns="http://www.w3.org/2000/svg" xmlns:xlink="http://www.w3.org/1999/xlink" x="0px" y="0px"
	 viewBox="0 0 16.4 11.2" style="enable-background:new 0 0 16.4 11.2;" xml:space="preserve">
<path d="M13.8,0.4L14,1.5L6.2,2.6L5.8,1.5L4.3,2l0.4,1.4L0.2,9C0,9.2-0.1,9.6,0.1,9.8c0.1,0.3,0.4,0.5,0.7,0.5l6.9,0.8l0,0
	c0.1,0,0.1,0,0.2,0c0.2,0,0.5-0.1,0.6-0.3l6-7.1l0.3,1.6l1.6-0.4l-1-5.1L13.8,0.4z M2.5,8.9l2.9-3.5l1.3,4L2.5,8.9z M8.2,8.6
	L6.7,4.3l6-0.9L8.2,8.6z"/>
</svg>
