<?xml version="1.0" encoding="utf-8"?>
<!-- Generator: Adobe Illustrator 23.0.6, SVG Export Plug-In . SVG Version: 6.00 Build 0)  -->
<svg version="1.1" id="Warstwa_1" xmlns="http://www.w3.org/2000/svg" xmlns:xlink="http://www.w3.org/1999/xlink" x="0px" y="0px"
	 viewBox="0 0 60 59" style="enable-background:new 0 0 60 59;" xml:space="preserve">
<path d="M15.9,19.7c-0.1,0-0.2,0-0.3-0.1c-4.2-2.7-5.6-6.5-3.8-10.4c1.1-2.4,4-3.7,7-5c2.5-1.1,5-2.3,6.6-4.1
	C25.5,0.1,25.7,0,25.8,0c0,0,0,0,0,0c0.1,0,0.3,0.1,0.4,0.2c3.4,3.9,3.6,10.4,0.6,15.5c-2.1,3.5-5.8,4-7.9,4c0,0,0,0,0,0L15.9,19.7
	C15.9,19.7,15.9,19.7,15.9,19.7z M25.8,1.3C24,3,21.6,4.1,19.2,5.1c-2.8,1.3-5.5,2.5-6.5,4.5c-2.1,4.7,1.5,7.8,3.3,9l2.8,0
	c1.8,0,5.2-0.4,7.1-3.5C28.6,10.6,28.6,4.9,25.8,1.3z"/>
<path d="M15.9,19.7c-0.1,0-0.2,0-0.3-0.1c-4.2-2.7-5.6-6.5-3.8-10.4c1.1-2.4,4-3.7,7-5c2.5-1.1,5-2.3,6.6-4.1
	C25.5,0.1,25.7,0,25.8,0c0,0,0,0,0,0c0.1,0,0.3,0.1,0.4,0.2c3.4,3.9,3.6,10.4,0.6,15.5c-2.1,3.5-5.8,4-7.9,4c-0.3,0-0.5-0.2-0.5-0.5
	c0-0.3,0.2-0.5,0.5-0.5c0,0,0,0,0,0c1.9,0,5.2-0.5,7-3.5c2.7-4.6,2.7-10.3-0.1-13.9C24,3,21.6,4.1,19.2,5.1
	c-2.8,1.3-5.5,2.5-6.5,4.5c-2.2,4.8,1.7,8,3.5,9.1c0.2,0.2,0.3,0.5,0.1,0.7C16.2,19.6,16.1,19.7,15.9,19.7z"/>
<path d="M17.7,29c-0.2,0-0.4-0.1-0.5-0.3c-0.9-2.3-1.4-4.7-1.4-7.3c0-5.8,2.6-11.2,7-14.8c0.2-0.2,0.5-0.1,0.7,0.1
	c0.2,0.2,0.1,0.5-0.1,0.7c-4.2,3.5-6.6,8.6-6.6,14.1c0,2.4,0.5,4.7,1.3,6.9c0.1,0.3,0,0.5-0.3,0.7C17.9,29,17.8,29,17.7,29z"/>
<path d="M53.6,25C53.5,25,53.5,25,53.6,25c-0.4-0.1-0.5-0.3-0.5-0.6c0.2-1,0.2-2,0.2-3c0-10-8.2-18.2-18.2-18.2
	c-1.6,0-3.1,0.2-4.6,0.6c-0.3,0.1-0.5-0.1-0.6-0.4c-0.1-0.3,0.1-0.5,0.4-0.6c1.6-0.4,3.2-0.6,4.8-0.6c10.6,0,19.2,8.6,19.2,19.2
	c0,1.1-0.1,2.1-0.3,3.1C54,24.8,53.8,25,53.6,25z"/>
<path d="M45.5,21c-0.1,0-0.3,0-0.4-0.1L43.3,19h-2.8c-0.1,0-0.3-0.1-0.4-0.1L38.3,17h-4.8c-0.1,0-0.3-0.1-0.4-0.1l-2-2
	c-0.2-0.2-0.2-0.5,0-0.7l2-2c0.1-0.1,0.2-0.1,0.4-0.1H36v-1.5c0-0.2,0.1-0.3,0.2-0.4l4-3C40.3,7,40.4,7,40.5,7h3
	C43.8,7,44,7.2,44,7.5S43.8,8,43.5,8h-2.8L37,10.8v1.8c0,0.3-0.2,0.5-0.5,0.5h-2.8l-1.5,1.5l1.5,1.5h4.8c0.1,0,0.3,0.1,0.4,0.1
	l1.9,1.9h2.8c0.1,0,0.3,0.1,0.4,0.1l1.6,1.6l1.6-1.6c0.1-0.1,0.2-0.1,0.4-0.1h4c0.3,0,0.5,0.2,0.5,0.5S51.8,19,51.5,19h-3.8
	l-1.9,1.9C45.8,21,45.6,21,45.5,21z"/>
<path d="M40.5,32c-0.3,0-0.5-0.2-0.5-0.5v-4c0-0.1,0.1-0.3,0.1-0.4l1.6-1.6L39.3,23h-2.8c-0.1,0-0.3-0.1-0.4-0.1L34.3,21h-3.6
	L29,22.7V27h3.5c0.1,0,0.3,0.1,0.4,0.1l2,2c0.1,0.1,0.1,0.2,0.1,0.4v2c0,0.3-0.2,0.5-0.5,0.5S34,31.8,34,31.5v-1.8L32.3,28h-3.8
	c-0.3,0-0.5-0.2-0.5-0.5v-5c0-0.1,0.1-0.3,0.1-0.4l2-2c0.1-0.1,0.2-0.1,0.4-0.1h4c0.1,0,0.3,0.1,0.4,0.1l1.9,1.9h2.8
	c0.1,0,0.3,0.1,0.4,0.1l3,3c0.2,0.2,0.2,0.5,0,0.7L41,27.7v3.8C41,31.8,40.8,32,40.5,32z"/>
<path d="M20.4,50.2c-0.1,0-0.2,0-0.3-0.1c-0.6-0.5-1.9-1.8-3.5-3.5c-2.5-2.6-5.7-5.7-7.7-7.4c-0.1-0.1-0.2-0.2-0.2-0.4
	c0-0.1,0.1-0.3,0.2-0.4c0.3-0.2,1.2-1.2,2.2-2.3c0.9-1,2-2.2,3-3.1c1.2-1.1,3.8-3,5.9-3h6.4c1.2,0,2.4,1,3.5,1.9
	c0.6,0.5,1.4,1.1,1.8,1.1h7.8c1.4,0,2.4,0.5,3.1,1.2l5-2.7c1.5-2.9,3.6-4.7,6.4-5.3c2.6-0.6,4.9-0.2,5.9,1.1
	c0.1,0.1,0.1,0.3,0.1,0.5C58.6,30.9,53,38,52.1,39c-0.6,0.7-9.3,9-11.3,9H22.6c-0.1,0-0.4,0-0.5,0c0,0,0,0,0,0c-0.1,0.3-0.3,1-1.4,2
	C20.6,50.1,20.5,50.2,20.4,50.2z M9.9,38.7c2,1.8,4.9,4.7,7.3,7.1c1.3,1.3,2.5,2.5,3.1,3.1c0.6-0.7,0.7-1,0.8-1.3
	c0.2-0.7,0.6-0.7,1.5-0.7h18.3c1.2,0,9.2-7.2,10.5-8.6c1.1-1.2,6.1-7.7,7.5-10.7c-0.7-0.7-2.4-1.1-4.7-0.5c-2.6,0.6-4.4,2.2-5.8,4.9
	c0,0.1-0.1,0.2-0.2,0.2l-5,2.7c0.4,0.6,0.5,1.3,0.5,2c0,1-0.4,2-1.1,2.8c-0.8,0.8-1.9,1.2-3.2,1.2h-11c-0.3,0-0.5-0.2-0.5-0.5
	s0.2-0.5,0.5-0.5h11c2.2,0,3.2-1.6,3.2-3s-1-3-3.2-3h-7.8c-0.7,0-1.4-0.6-2.4-1.4c-0.9-0.7-2.1-1.6-2.9-1.6h-6.4
	c-1.6,0-3.8,1.4-5.2,2.7c-0.9,0.9-2,2.1-3,3.1C11,37.6,10.3,38.3,9.9,38.7z"/>
<path d="M15.6,59c-0.1,0-0.3-0.1-0.4-0.1L0.1,43.7C0,43.6,0,43.2,0.1,43l6.8-6.8c0.2-0.2,0.5-0.2,0.7,0l15.1,15.1
	c0.2,0.2,0.2,0.5,0,0.7l-6.8,6.8C15.8,58.9,15.7,59,15.6,59z M1.2,43.4l14.4,14.4l6.1-6.1L7.3,37.3L1.2,43.4z"/>
<path d="M8.7,45.6c-0.1,0-0.3,0-0.4-0.1l-2.6-2.6c-0.2-0.2-0.2-0.5,0-0.7s0.5-0.2,0.7,0l2.6,2.6c0.2,0.2,0.2,0.5,0,0.7
	C9,45.5,8.8,45.6,8.7,45.6z"/>
</svg>
