<?xml version="1.0" encoding="utf-8"?>
<!-- Generator: Adobe Illustrator 23.0.6, SVG Export Plug-In . SVG Version: 6.00 Build 0)  -->
<svg version="1.1" id="Warstwa_1" xmlns="http://www.w3.org/2000/svg" xmlns:xlink="http://www.w3.org/1999/xlink" x="0px" y="0px"
	 viewBox="0 0 61 58" style="enable-background:new 0 0 61 58;" xml:space="preserve">
<g>
	<path d="M22.9,48.7c-5.2,0-9.4-4.2-9.4-9.3c0-4.1,2.3-7,4.4-9.8c1.8-2.4,3.7-4.8,4.3-7.9c0-0.2,0.3-0.4,0.5-0.4h0.4
		c0.2,0,0.4,0.2,0.5,0.4c0.6,3.1,2.4,5.6,4.3,7.9c2.2,2.8,4.4,5.8,4.4,9.9C32.3,44.5,28.1,48.7,22.9,48.7z M22.9,23
		c-0.8,2.8-2.5,5-4.2,7.1c-2.2,2.8-4.2,5.5-4.2,9.2c0,4.6,3.8,8.3,8.4,8.3c4.6,0,8.4-3.7,8.4-8.3c0-3.7-2.1-6.4-4.2-9.2
		C25.4,28,23.7,25.8,22.9,23z"/>
</g>
<g>
	<path d="M23.6,44.5c-3.5,0-6.3-2.8-6.3-6.3c0-0.3,0.2-0.5,0.5-0.5s0.5,0.2,0.5,0.5c0,3,2.3,5.3,5.3,5.3c0.3,0,0.5,0.2,0.5,0.5
		S23.9,44.5,23.6,44.5z"/>
</g>
<g>
	<path d="M45.3,42.4c-3.8,0-6.9-3.1-6.9-6.9c0-3.2,1.9-5.8,3.6-8.1c1.2-1.6,2.3-3.2,2.7-4.8c0.1-0.2,0.3-0.4,0.5-0.4h0.3
		c0.2,0,0.4,0.2,0.5,0.4c0.4,1.6,1.5,3.1,2.7,4.8c1.7,2.3,3.6,4.9,3.6,8.1C52.2,39.3,49.1,42.4,45.3,42.4z M45.3,23.9
		c-0.6,1.4-1.5,2.7-2.5,4.1c-1.7,2.3-3.4,4.6-3.4,7.5c0,3.2,2.7,5.9,5.9,5.9s5.9-2.6,5.9-5.9c0-2.9-1.7-5.2-3.4-7.5
		C46.9,26.6,45.9,25.3,45.3,23.9z"/>
</g>
<g>
	<path d="M45.2,39.2c-2,0-3.7-1.6-3.7-3.7c0-0.3,0.2-0.5,0.5-0.5s0.5,0.2,0.5,0.5c0,1.5,1.2,2.7,2.7,2.7c0.3,0,0.5,0.2,0.5,0.5
		S45.5,39.2,45.2,39.2z"/>
</g>
<g>
	<path d="M34.3,24.9c-3.1,0-5.8-2.8-5.8-6.1c0-2.8,1.7-5.3,3.1-7.5c0.9-1.4,1.8-2.7,2.1-3.8c0.1-0.2,0.3-0.4,0.5-0.4h0.2
		c0.2,0,0.4,0.2,0.5,0.4C35.2,8.7,36,10,37,11.3c1.5,2.2,3.1,4.6,3.1,7.4C40.1,22,37.4,24.9,34.3,24.9z M34.3,8.8
		c-0.4,1-1.1,2-1.8,3.1c-1.4,2.1-3,4.5-3,6.9c0,2.7,2.2,5.1,4.8,5.1c2.6,0,4.8-2.4,4.8-5.2c0-2.5-1.6-4.8-3-6.8
		C35.4,10.8,34.7,9.8,34.3,8.8z"/>
</g>
<g>
	<path d="M59.3,38.3c0,0-0.1,0-0.1,0c-0.3-0.1-0.4-0.4-0.3-0.6c0.2-0.7,0.4-1.3,0.5-1.8c1.6-7.1,0.4-14.4-3.4-20.6
		C52,9.1,46,4.8,38.9,3.1c-0.3-0.1-0.4-0.3-0.4-0.6c0.1-0.3,0.3-0.4,0.6-0.4c7.4,1.7,13.6,6.2,17.6,12.6s5.3,14,3.6,21.4
		c-0.1,0.6-0.3,1.2-0.5,1.9C59.7,38.2,59.5,38.3,59.3,38.3z"/>
</g>
<g>
	<path d="M6.2,38.3c-0.2,0-0.4-0.1-0.5-0.4C4.2,33.3,4,28.2,5.2,23.4C7.6,12.7,15.7,4.6,26.4,2.2c0.3-0.1,0.5,0.1,0.6,0.4
		c0.1,0.3-0.1,0.5-0.4,0.6C16.3,5.5,8.5,13.3,6.1,23.6c-1.1,4.7-0.9,9.5,0.5,14.1c0.1,0.3-0.1,0.5-0.3,0.6
		C6.3,38.3,6.2,38.3,6.2,38.3z"/>
</g>
<g>
	<path d="M32.7,58c-2.1,0-4.2-0.2-6.3-0.7C20.8,56,15.9,53.2,12,49c-0.2-0.2-0.2-0.5,0-0.7c0.2-0.2,0.5-0.2,0.7,0
		c3.7,4,8.5,6.7,13.8,8c9.5,2.2,19.5-0.9,26.1-8c0.2-0.2,0.5-0.2,0.7,0c0.2,0.2,0.2,0.5,0,0.7C48,54.8,40.4,58,32.7,58z"/>
</g>
<g>
	<path d="M6.2,38.3c-0.1,0-0.3,0-0.3-0.1l-5.7-5.5c-0.2-0.2-0.2-0.5,0-0.7c0.2-0.2,0.5-0.2,0.7,0L6,37l3-6.5
		c0.1-0.2,0.4-0.4,0.7-0.2c0.3,0.1,0.4,0.4,0.2,0.7l-3.3,7.2C6.5,38.2,6.4,38.3,6.2,38.3C6.2,38.3,6.2,38.3,6.2,38.3z"/>
</g>
<g>
	<path d="M51.1,56.8c0,0-0.1,0-0.1,0c-0.3-0.1-0.4-0.3-0.4-0.6l1.8-7l-7.2,0.7c-0.3,0-0.5-0.2-0.5-0.5c0-0.3,0.2-0.5,0.5-0.5
		l7.9-0.7c0.2,0,0.3,0,0.4,0.2c0.1,0.1,0.1,0.3,0.1,0.4l-1.9,7.7C51.5,56.7,51.3,56.8,51.1,56.8z"/>
</g>
<g>
	<path d="M43.5,9.6c-0.2,0-0.3-0.1-0.4-0.2l-4.6-6.5c-0.1-0.1-0.1-0.3-0.1-0.5c0.1-0.2,0.2-0.3,0.3-0.3L46.5,0
		c0.3-0.1,0.5,0.1,0.6,0.3C47.1,0.6,47,0.9,46.7,1l-6.9,2l4.1,5.9c0.2,0.2,0.1,0.5-0.1,0.7C43.7,9.6,43.6,9.6,43.5,9.6z"/>
</g>
</svg>
