<?xml version="1.0" encoding="utf-8"?>
<!-- Generator: Adobe Illustrator 23.0.6, SVG Export Plug-In . SVG Version: 6.00 Build 0)  -->
<svg version="1.1" id="Warstwa_1" xmlns="http://www.w3.org/2000/svg" xmlns:xlink="http://www.w3.org/1999/xlink" x="0px" y="0px"
	 viewBox="0 0 117.4 117.4" style="enable-background:new 0 0 117.4 117.4;" xml:space="preserve">
<g>
	<path d="M90.7,34.7c4.4,0,7.9-3.5,7.9-7.9s-3.5-7.9-7.9-7.9s-7.9,3.5-7.9,7.9S86.3,34.7,90.7,34.7z M90.7,26.2
		c0.3,0,0.6,0.3,0.6,0.6c0,0.3-0.3,0.6-0.6,0.6s-0.6-0.3-0.6-0.6C90.1,26.5,90.3,26.2,90.7,26.2z"/>
	<path d="M58.7,28.8c-17.1,0-30.9,13.9-30.9,30.9s13.9,30.9,30.9,30.9c17.1,0,30.9-13.9,30.9-30.9S75.8,28.8,58.7,28.8z M58.7,80.9
		c-11.7,0-21.2-9.5-21.2-21.2s9.5-21.2,21.2-21.2c11.7,0,21.2,9.5,21.2,21.2S70.4,80.9,58.7,80.9z"/>
	<path d="M116.9,28.2c-0.5-15-12.7-27.2-27.7-27.7c-20-0.7-41.1-0.7-61.1,0C13.2,1,1,13.2,0.5,28.2C0.2,38.3,0,48.5,0,58.7
		s0.2,20.5,0.5,30.5c0.5,15,12.7,27.2,27.7,27.7c10,0.3,20.3,0.5,30.5,0.5c10.2,0,20.5-0.2,30.5-0.5c15-0.5,27.2-12.7,27.7-27.7
		c0.3-10.1,0.5-20.3,0.5-30.5C117.4,48.5,117.3,38.2,116.9,28.2z M28.5,107.1c-9.9-0.3-17.9-8.3-18.2-18.2C10,79,9.8,68.8,9.8,58.7
		c0-10.1,0.2-20.2,0.5-30.2c0.3-9.9,8.3-17.9,18.2-18.2c9.9-0.3,20.1-0.5,30.2-0.5c10.1,0,20.3,0.2,30.2,0.5
		c9.9,0.3,17.9,8.3,18.2,18.2c0.3,9.9,0.5,20.1,0.5,30.2c0,10.1-0.2,20.3-0.5,30.2v0c-0.3,9.9-8.3,17.9-18.2,18.2
		C69.2,107.8,48.3,107.8,28.5,107.1z"/>
</g>
</svg>
